<?xml version="1.0" standalone="no"?><!DOCTYPE svg PUBLIC "-//W3C//DTD SVG 1.1//EN" "http://www.w3.org/Graphics/SVG/1.1/DTD/svg11.dtd"><svg t="1717400944835" class="icon" viewBox="0 0 1024 1024" version="1.1" xmlns="http://www.w3.org/2000/svg" p-id="887" xmlns:xlink="http://www.w3.org/1999/xlink" width="200" height="200"><path d="M785.28 656c-15.89333333 0-28.8-12.90666667-28.8-28.8V484.26666667c0-18.34666667-14.93333333-33.28-33.28-33.28h-23.46666667c-15.89333333 0-28.8-12.90666667-28.8-28.8s12.90666667-28.8 28.8-28.8h23.46666667c50.13333333 0 90.88 40.74666667 90.88 90.88v142.93333333c0 15.89333333-12.90666667 28.8-28.8 28.8zM723.09333333 860.48H301.12c-50.13333333 0-90.88-40.74666667-90.88-90.88V484.16c0-50.13333333 40.74666667-90.88 90.88-90.88H324.26666667c15.89333333 0 28.8 12.90666667 28.8 28.8s-12.90666667 28.8-28.8 28.8h-23.25333334c-18.34666667 0-33.28 14.93333333-33.28 33.28v285.44c0 18.34666667 14.93333333 33.28 33.28 33.28h422.08c18.34666667 0 33.28-14.93333333 33.28-33.28v-6.08c0-15.89333333 12.90666667-28.8 28.8-28.8s28.8 12.90666667 28.8 28.8v6.08c0.10666667 50.13333333-40.74666667 90.88-90.88 90.88z" p-id="888"></path><path d="M337.38666667 447.04c-14.72 0-27.30666667-11.30666667-28.69333334-26.24-0.64-7.36-0.85333333-92.37333333-0.85333333-93.22666666 0-111.57333333 91.2-202.45333333 203.41333333-202.45333334 60.90666667 0 118.08 26.77333333 156.90666667 73.6 10.13333333 12.26666667 8.42666667 30.4-3.73333333 40.53333334-12.26666667 10.13333333-30.4 8.42666667-40.53333334-3.73333334-27.84-33.49333333-68.8-52.8-112.53333333-52.8-80.42666667 0-145.81333333 64.96-145.81333333 144.85333334 0 9.17333333 0.21333333 80.85333333 0.64 88.53333333 1.17333333 15.68-10.45333333 29.44-26.13333334 30.82666667-0.96 0-1.81333333 0.10666667-2.66666666 0.10666666z m28.69333333-31.36v0z" p-id="889"></path><path d="M699.62666667 450.88H324.26666667c-15.89333333 0-28.8-12.90666667-28.8-28.8s12.90666667-28.8 28.8-28.8h375.36c15.89333333 0 28.8 12.90666667 28.8 28.8s-12.90666667 28.8-28.8 28.8z" p-id="890"></path><path d="M699.62666667 450.88H324.26666667c-15.89333333 0-28.8-12.90666667-28.8-28.8s12.90666667-28.8 28.8-28.8h375.36c15.89333333 0 28.8 12.90666667 28.8 28.8s-12.90666667 28.8-28.8 28.8zM580.37333333 655.68h-136.53333333c-15.89333333 0-28.8-12.90666667-28.8-28.8s12.90666667-28.8 28.8-28.8h136.53333333c15.89333333 0 28.8 12.90666667 28.8 28.8s-12.90666667 28.8-28.8 28.8z" p-id="891"></path></svg>