<?xml version="1.0" standalone="no"?><!DOCTYPE svg PUBLIC "-//W3C//DTD SVG 1.1//EN" "http://www.w3.org/Graphics/SVG/1.1/DTD/svg11.dtd"><svg t="1717596382908" class="icon" viewBox="0 0 1024 1024" version="1.1" xmlns="http://www.w3.org/2000/svg" p-id="1555" xmlns:xlink="http://www.w3.org/1999/xlink" width="200" height="200"><path d="M785.28 677.33333333c-15.89333333 0-28.8-12.90666667-28.8-28.8V505.6c0-18.34666667-14.93333333-33.28-33.28-33.28h-23.46666667c-15.89333333 0-28.8-12.90666667-28.8-28.8s12.90666667-28.8 28.8-28.8h23.46666667c50.13333333 0 90.88 40.74666667 90.88 90.88v142.93333333c0 15.89333333-12.90666667 28.8-28.8 28.8zM723.09333333 881.81333333H301.12c-50.13333333 0-90.88-40.74666667-90.88-90.88V505.49333333c0-50.13333333 40.74666667-90.88 90.88-90.88H324.26666667c15.89333333 0 28.8 12.90666667 28.8 28.8s-12.90666667 28.8-28.8 28.8h-23.25333334c-18.34666667 0-33.28 14.93333333-33.28 33.28v285.44c0 18.34666667 14.93333333 33.28 33.28 33.28h422.08c18.34666667 0 33.28-14.93333333 33.28-33.28v-6.08c0-15.89333333 12.90666667-28.8 28.8-28.8s28.8 12.90666667 28.8 28.8v6.08c0.10666667 50.13333333-40.74666667 90.88-90.88 90.88z" p-id="1556"></path><path d="M338.13333333 470.93333333c-14.72 0-27.30666667-11.30666667-28.69333333-26.24-0.64-7.36-0.85333333-92.37333333-0.85333333-93.22666666 0-111.57333333 91.2-202.45333333 203.41333333-202.45333334 112.10666667 0 203.30666667 90.77333333 203.30666667 202.45333334 0 0.85333333-0.10666667 85.76-0.74666667 93.12-1.38666667 15.89333333-15.36 27.52-31.25333333 26.13333333-15.68-1.38666667-27.30666667-15.14666667-26.13333334-30.82666667 0.32-7.68 0.64-79.36 0.64-88.53333333 0-79.89333333-65.38666667-144.85333333-145.70666666-144.85333333-80.42666667 0-145.81333333 64.96-145.81333334 144.85333333 0 9.17333333 0.21333333 80.85333333 0.64 88.53333333 1.17333333 15.68-10.45333333 29.44-26.13333333 30.82666667-0.96 0.21333333-1.81333333 0.21333333-2.66666667 0.21333333z m319.04-31.36v0z m-290.34666666 0v0z" p-id="1557"></path><path d="M699.62666667 472.21333333H324.26666667c-15.89333333 0-28.8-12.90666667-28.8-28.8s12.90666667-28.8 28.8-28.8h375.36c15.89333333 0 28.8 12.90666667 28.8 28.8s-12.90666667 28.8-28.8 28.8z" p-id="1558"></path><path d="M699.62666667 472.21333333H324.26666667c-15.89333333 0-28.8-12.90666667-28.8-28.8s12.90666667-28.8 28.8-28.8h375.36c15.89333333 0 28.8 12.90666667 28.8 28.8s-12.90666667 28.8-28.8 28.8zM513.06666667 745.81333333c-53.65333333 0-97.38666667-43.62666667-97.38666667-97.38666666 0-53.65333333 43.62666667-97.38666667 97.38666667-97.38666667 53.65333333 0 97.38666667 43.62666667 97.38666666 97.38666667s-43.73333333 97.38666667-97.38666666 97.38666666z m0-137.06666666c-21.86666667 0-39.78666667 17.81333333-39.78666667 39.78666666 0 21.86666667 17.81333333 39.78666667 39.78666667 39.78666667 21.86666667 0 39.78666667-17.81333333 39.78666666-39.78666667 0-21.97333333-17.92-39.78666667-39.78666666-39.78666666z" p-id="1559"></path></svg>